HIERARCHY
ROOT Hips
{
	OFFSET -14.64140 90.27770 -84.91600
	CHANNELS 6 Xposition Yposition Zposition Zrotation Xrotation Yrotation
	JOINT Spine
	{
		OFFSET 0.00000 13.20850 -1.60436
		CHANNELS 3 Zrotation Xrotation Yrotation
		JOINT Spine1
		{
			OFFSET 0.00000 8.61716 0.00000
			CHANNELS 3 Zrotation Xrotation Yrotation
			JOINT Spine2
			{
				OFFSET 0.00000 8.61717 0.00000
				CHANNELS 3 Zrotation Xrotation Yrotation
				JOINT Spine3
				{
					OFFSET 0.00000 8.61717 0.00000
					CHANNELS 3 Zrotation Xrotation Yrotation
					JOINT Neck
					{
						OFFSET 0.00000 11.07920 1.10792
						CHANNELS 3 Zrotation Xrotation Yrotation
						JOINT Neck1
						{
							OFFSET 0.00000 7.08032 0.00000
							CHANNELS 3 Zrotation Xrotation Yrotation
							JOINT Head
							{
								OFFSET 0.00000 7.08031 0.00000
								CHANNELS 3 Zrotation Xrotation Yrotation
								End site
								{
									OFFSET 0.00000 0.00000 0.00000
								}
							}
						}
					}
					JOINT RightShoulder
					{
						OFFSET -0.01000 7.91373 5.19711
						CHANNELS 3 Zrotation Xrotation Yrotation
						JOINT RightArm
						{
							OFFSET -18.41580 0.00000 0.00000
							CHANNELS 3 Zrotation Xrotation Yrotation
							JOINT RightForeArm
							{
								OFFSET -29.11090 0.00000 0.00000
								CHANNELS 3 Zrotation Xrotation Yrotation
								JOINT RightHand
								{
									OFFSET -24.65040 0.00000 0.00000
									CHANNELS 3 Zrotation Xrotation Yrotation
									JOINT RightHandThumb1
									{
										OFFSET -5.35114 -0.85590 3.97906
										CHANNELS 3 Zrotation Xrotation Yrotation
										JOINT RightHandThumb2
										{
											OFFSET -4.52789 0.00000 0.00000
											CHANNELS 3 Zrotation Xrotation Yrotation
											JOINT RightHandThumb3
											{
												OFFSET -2.46976 0.00000 0.00000
												CHANNELS 3 Zrotation Xrotation Yrotation
												End site
												{
													OFFSET 0.00000 0.00000 0.00000
												}
											}
										}
									}
									JOINT RightHandIndex1
									{
										OFFSET -14.26970 0.00000 2.88139
										CHANNELS 3 Zrotation Xrotation Yrotation
										JOINT RightHandIndex2
										{
											OFFSET -5.48836 0.00000 0.00000
											CHANNELS 3 Zrotation Xrotation Yrotation
											JOINT RightHandIndex3
											{
												OFFSET -3.01859 0.00000 0.00000
												CHANNELS 3 Zrotation Xrotation Yrotation
												End site
												{
													OFFSET 0.00000 0.00000 0.00000
												}
											}
										}
									}
									JOINT RightHandMiddle1
									{
										OFFSET -14.26970 0.00000 -0.09147
										CHANNELS 3 Zrotation Xrotation Yrotation
										JOINT RightHandMiddle2
										{
											OFFSET -6.17441 0.00000 0.00000
											CHANNELS 3 Zrotation Xrotation Yrotation
											JOINT RightHandMiddle3
											{
												OFFSET -3.56743 0.00000 0.00000
												CHANNELS 3 Zrotation Xrotation Yrotation
												End site
												{
													OFFSET 0.00000 0.00000 0.00000
												}
											}
										}
									}
									JOINT RightHandRing1
									{
										OFFSET -12.69180 0.00000 -3.06433
										CHANNELS 3 Zrotation Xrotation Yrotation
										JOINT RightHandRing2
										{
											OFFSET -5.62556 0.00000 0.00000
											CHANNELS 3 Zrotation Xrotation Yrotation
											JOINT RightHandRing3
											{
												OFFSET -3.56744 0.00000 0.00000
												CHANNELS 3 Zrotation Xrotation Yrotation
												End site
												{
													OFFSET 0.00000 0.00000 0.00000
												}
											}
										}
									}
									JOINT RightHandPinky1
									{
										OFFSET -11.11390 0.00000 -6.03719
										CHANNELS 3 Zrotation Xrotation Yrotation
										JOINT RightHandPinky2
										{
											OFFSET -4.52789 0.00000 0.00000
											CHANNELS 3 Zrotation Xrotation Yrotation
											JOINT RightHandPinky3
											{
												OFFSET -2.46976 0.00000 0.00000
												CHANNELS 3 Zrotation Xrotation Yrotation
												End site
												{
													OFFSET 0.00000 0.00000 0.00000
												}
											}
										}
									}
								}
							}
						}
					}
					JOINT LeftShoulder
					{
						OFFSET 0.01000 7.91373 5.19711
						CHANNELS 3 Zrotation Xrotation Yrotation
						JOINT LeftArm
						{
							OFFSET 18.41580 0.00000 0.00000
							CHANNELS 3 Zrotation Xrotation Yrotation
							JOINT LeftForeArm
							{
								OFFSET 29.11090 0.00000 0.00000
								CHANNELS 3 Zrotation Xrotation Yrotation
								JOINT LeftHand
								{
									OFFSET 24.65040 0.00000 0.00000
									CHANNELS 3 Zrotation Xrotation Yrotation
									JOINT LeftHandThumb1
									{
										OFFSET 5.35114 -0.85590 3.97906
										CHANNELS 3 Zrotation Xrotation Yrotation
										JOINT LeftHandThumb2
										{
											OFFSET 4.52789 0.00000 0.00000
											CHANNELS 3 Zrotation Xrotation Yrotation
											JOINT LeftHandThumb3
											{
												OFFSET 2.46977 0.00000 0.00000
												CHANNELS 3 Zrotation Xrotation Yrotation
												End site
												{
													OFFSET 0.00000 0.00000 0.00000
												}
											}
										}
									}
									JOINT LeftHandIndex1
									{
										OFFSET 14.26970 0.00000 2.88139
										CHANNELS 3 Zrotation Xrotation Yrotation
										JOINT LeftHandIndex2
										{
											OFFSET 5.48836 0.00000 0.00000
											CHANNELS 3 Zrotation Xrotation Yrotation
											JOINT LeftHandIndex3
											{
												OFFSET 3.01859 0.00000 0.00000
												CHANNELS 3 Zrotation Xrotation Yrotation
												End site
												{
													OFFSET 0.00000 0.00000 0.00000
												}
											}
										}
									}
									JOINT LeftHandMiddle1
									{
										OFFSET 14.26970 0.00000 -0.09147
										CHANNELS 3 Zrotation Xrotation Yrotation
										JOINT LeftHandMiddle2
										{
											OFFSET 6.17440 0.00000 0.00000
											CHANNELS 3 Zrotation Xrotation Yrotation
											JOINT LeftHandMiddle3
											{
												OFFSET 3.56744 0.00000 0.00000
												CHANNELS 3 Zrotation Xrotation Yrotation
												End site
												{
													OFFSET 0.00000 0.00000 0.00000
												}
											}
										}
									}
									JOINT LeftHandRing1
									{
										OFFSET 12.69180 0.00000 -3.06433
										CHANNELS 3 Zrotation Xrotation Yrotation
										JOINT LeftHandRing2
										{
											OFFSET 5.62556 0.00000 0.00000
											CHANNELS 3 Zrotation Xrotation Yrotation
											JOINT LeftHandRing3
											{
												OFFSET 3.56744 0.00000 0.00000
												CHANNELS 3 Zrotation Xrotation Yrotation
												End site
												{
													OFFSET 0.00000 0.00000 0.00000
												}
											}
										}
									}
									JOINT LeftHandPinky1
									{
										OFFSET 11.11390 0.00000 -6.03719
										CHANNELS 3 Zrotation Xrotation Yrotation
										JOINT LeftHandPinky2
										{
											OFFSET 4.52789 0.00000 0.00000
											CHANNELS 3 Zrotation Xrotation Yrotation
											JOINT LeftHandPinky3
											{
												OFFSET 2.46976 0.00000 0.00000
												CHANNELS 3 Zrotation Xrotation Yrotation
												End site
												{
													OFFSET 0.00000 0.00000 0.00000
												}
											}
										}
									}
								}
							}
						}
					}
					JOINT pCube4
					{
						OFFSET 0.00000 10.91090 1.10792
						CHANNELS 3 Zrotation Xrotation Yrotation
						End site
						{
							OFFSET 0.00000 0.00000 0.00000
						}
					}
				}
			}
		}
	}
	JOINT RightUpLeg
	{
		OFFSET -9.98441 0.00000 0.00000
		CHANNELS 3 Zrotation Xrotation Yrotation
		JOINT RightLeg
		{
			OFFSET 0.00000 -42.11790 0.00000
			CHANNELS 3 Zrotation Xrotation Yrotation
			JOINT RightFoot
			{
				OFFSET 0.00000 -45.00020 -0.00001
				CHANNELS 3 Zrotation Xrotation Yrotation
				JOINT RightForeFoot
				{
					OFFSET 0.00000 -3.74820 0.00000
					CHANNELS 3 Zrotation Xrotation Yrotation
					JOINT RightToeBase
					{
						OFFSET 0.00000 0.06325 14.43120
						CHANNELS 3 Zrotation Xrotation Yrotation
						End site
						{
							OFFSET 0.00000 0.00000 0.00000
						}
					}
				}
			}
		}
	}
	JOINT LeftUpLeg
	{
		OFFSET 9.98441 0.00000 0.00000
		CHANNELS 3 Zrotation Xrotation Yrotation
		JOINT LeftLeg
		{
			OFFSET 0.00000 -42.11800 0.00000
			CHANNELS 3 Zrotation Xrotation Yrotation
			JOINT LeftFoot
			{
				OFFSET 0.00000 -45.00070 0.00000
				CHANNELS 3 Zrotation Xrotation Yrotation
				JOINT LeftForeFoot
				{
					OFFSET 0.00000 -3.74824 0.00000
					CHANNELS 3 Zrotation Xrotation Yrotation
					JOINT LeftToeBase
					{
						OFFSET 0.00000 0.06325 14.43110
						CHANNELS 3 Zrotation Xrotation Yrotation
						End site
						{
							OFFSET 0.00000 0.00000 0.00000
						}
					}
				}
			}
		}
	}
}
MOTION
Frames: 4
Frame Time: 0.050000
-0.025887019531227292 0.0016516695238000926 0.012031473915760996 -0.04627479207063934 0.01609853914650227 -0.0016536805722562203 4.620421293530268 3.127868593733592 -2.1536161817009556 -0.7393366761021762 3.528512880344195 0.4195991140837257 -0.6543669040039459 -1.0272580378658596 -0.151423883047429 -0.3593016156250003 -0.2310895921769503 -0.40179072287049433 -0.1226688556209133 12.31022471304661 -0.9761241154165952 0.3715271199919466 -0.45432684784529853 -1.4455796723817544 0.6472225888320531 -16.749296251884374 -0.13523457454568388 -9.307235127530838 3.169185315455635 -18.50720909505565 77.44576240703269 5.371856065642969 -0.2009416627990544 -17.690618088497686 -4.465980890061897 59.31951170120971 22.334290671817545 -0.30075635170327214 -7.223721812476033 4.522963937019182 -0.1311331018958316 -1.5767438638272329 0.015850383676105487 -0.03127954942796742 -56.25520031559128 0.02316234290810589 -0.04907956130812315 -56.23851280017327 -38.76012218204865 -0.03889798426501908 -0.026832061727866018 -0.027890747428801665 0.018048459165980118 0.043263993940532965 0.03910992425603475 0.0011334141487115337 0.010918752631887676 -36.69935784499034 0.010615884645712894 -0.010554424460067765 0.011113482346188083 0.012318597720203892 -0.02839795083103007 0.002187302751076691 -0.020933474436038334 -0.010766959057960704 -19.781465412634606 -0.003605597695744773 -0.0386319479303518 -0.03519902615405179 0.046658694492534646 0.03454668621586798 -0.029746378107495492 -0.04259316142762541 -0.029045928690831096 24.025391652538566 0.028411323595710712 0.03640497582627235 28.85724577059291 0.024419239128417397 0.049277048439316073 28.825758381068226 0.04603649546458578 -0.04214547271692449 10.149361657198634 2.430408255167656 15.295451335458717 -72.66659324598228 19.901984399308855 -13.850511028919987 -40.66889897055822 6.699664228077427 -90.54338099689716 -21.7180606495573 -9.745266822561613 6.570197541536376 -0.46515856181275084 0.05580196622938008 -8.14757490031015 -0.010285637163376172 -0.01049900905813094 44.56230144666953 -0.02088667674173849 0.023604272116891607 44.58065288227122 12.445702770328255 0.0350463452035284 -0.014131655098520655 0.04814144490386081 0.004945735493299305 -0.03057379145979183 -0.0056137530204804975 -0.011460595710723725 -0.016829185626757257 11.110771093145873 0.031101442479008673 0.01154123933164849 -0.048905454611827326 0.027267122506939964 -0.00801934741741508 0.037808574101358405 0.014177823293944809 0.006093237742084112 4.738329361381573 0.0018944886124754397 -0.03040466037881616 -0.04895949281349105 0.01470818558664788 -0.004649283290070672 0.008835140011164212 0.037408143252221436 -0.016648253798779888 -5.584859924045922 0.019613045774098958 0.029598698221139655 -6.692413643427971 0.04715273242865168 0.014028864234954995 -6.714399620933437 0.033688206653043666 0.01889014890507802 0.03171532612000469 -0.041048330398011215 0.01577628800998563 8.083924496324329 3.521547410973319 -19.17897435863683 -0.0022989537876972697 10.396791826359713 -0.015897648507073592 -5.647539977464813 -15.660467887533983 3.178846383122638 -0.022824550432528175 0.041589829740549915 -0.024949130206307155 0.009113025567157401 4.713803772672177 -0.03325915291205993 12.48673306158326 -8.22883374650952 6.89023752581198 -0.00943891617610077 46.35581626845384 0.0451302482120016 -4.280517206355521 -14.778571393280492 -3.803305801241533 0.009436268780741342 0.01056142718849576 -0.003659138365249225 0.01861825725133458 -10.706235473543414 -0.044101676087980414 
0.008966095810840988 0.03439260530707714 -0.017232545533416157 0.03275926096905736 0.021837093855436075 0.014437621507014468 4.47537251759006 3.0913533501879464 -2.056682699993929 -0.7769685051869221 3.5058262819414496 0.396687594776804 -0.6491324939484787 -1.0891868409858223 -0.05815950806715446 -0.4190893597853077 -0.30624583520601784 -0.45766010042173944 -0.11269784276973864 12.20596501518652 -1.0528965868299003 0.34938691030765845 -0.4955646235230291 -1.5898821109914143 0.7643720784978874 -16.819682850490956 -0.14023165579941665 -9.338430898994176 3.1337698085988652 -18.454035321411624 77.7724140532073 5.170664597537956 -0.10723119796480352 -18.04261948887142 -4.707989256610943 59.66442957378695 22.494987498700677 -0.2465829822780266 -7.368303499552922 4.572643380345222 -0.09080816712946521 -1.5769421777699213 -0.03101523205643653 0.034890632585645974 -56.201812865709364 0.008197796727277048 0.04507325809742075 -56.25060079308818 -38.74801134810832 0.0030088958057840408 0.01966355569372305 -0.009079839332269557 0.021746624001189357 0.03266290025851225 0.02577679974064315 0.013635797429743093 -0.000362686095289152 -36.67326225081563 0.028727970948364406 0.008673517167604986 -0.037399313164239 -0.02065058914983783 -0.025479964700333622 0.021397165674112345 0.03400770543342695 0.00990481395562252 -19.75391263761369 -0.04720589342296884 0.020601032424698386 0.024338557441053364 -0.033831225067860134 0.01567039303689857 0.02031538162475262 0.0011522011099260841 -0.01566359488906115 24.063526934821464 0.03497626147605396 -0.004222020235230769 28.856171801998084 -0.03232725708652698 0.023057578277743317 28.844826415254133 -0.005139928182095721 0.0040807193799385745 9.954081341385415 2.395866928600071 15.244575867975803 -73.6381265093628 19.61481169988085 -12.6193650921069 -43.716396740373334 6.772022673167299 -90.97067116141957 -21.731963128980905 -9.816948219487212 6.661608522535634 -0.5197337354004752 0.03275168194319764 -8.111423003927255 -0.009201520866361713 -0.01714313681219983 44.55584618946601 -0.013746168474504617 -0.010883959413150238 44.552078833175386 12.4466108586928 -0.01707051562538005 0.007653485314049831 -0.010102736742355397 -0.003010655999512797 0.004706554565015663 0.003119503975311924 0.006183570155087682 0.026268546128062113 11.061290155856513 -0.01172870987316111 0.01548690925391296 -0.011828744654832005 -0.026507360539007294 0.02475315865739663 -0.026582711956763212 0.01272999336989364 0.013835941751584096 4.755623582718064 -0.0059346645841661045 -0.0036106636308234855 0.028967002226721803 -0.04003364440718271 -0.024505230598771164 0.015661691678195703 -0.008328196448105892 0.010289534665992155 -5.605881737193014 -0.004876506613868984 -0.03723161580773212 -6.706693666478982 -0.01825601002725643 0.0013376161783392724 -6.693580716890972 -0.0331291393360528 -0.0041308414703673454 -0.022925073201819524 0.030896796869245683 0.006193622421218486 8.040762695954838 3.47159712843596 -19.217024289970887 -0.020000883727207576 10.374304565977006 -0.011334031716828258 -5.653992241678285 -15.618026996347272 3.1958835983719953 -0.00773329035812533 -0.006218454441896883 0.04552648580833218 0.00587178951555572 4.690131382444315 -0.04964268589372627 12.415830174006667 -8.258326311987323 6.905382517084871 -0.021441548047834724 46.367178526504105 -0.0003058415784506581 -4.298791936155045 -14.72092963145491 -3.833130219760826 -0.01652659160114681 0.03212266185317382 -0.04470369901412175 0.00023225912987754078 -10.735965117946819 -0.004999374093497193 
0.023736245842013587 -0.00021267249804216498 0.013138459884136514 -0.0068051449126367266 0.04113039126931184 0.005609485294638125 4.304233914940629 3.0116830754721424 -2.1223190793858437 -0.7230497773792807 3.503752585527511 0.35034117789584446 -0.634193123326429 -1.1363797080491163 -0.04464730086728612 -0.4389113787811888 -0.2767883488559293 -0.47773191620983413 -0.1358958283956501 12.138752373846804 -0.9995702184584858 0.3435366744979983 -0.4793231464297071 -1.5971199689245061 0.7652915541739035 -16.790142550827426 -0.18945934824193686 -9.18828821155024 3.1344722483894127 -18.362415302849872 78.3823582805885 4.133971107684249 0.14823726422564404 -16.745261794856756 -3.9055370888284004 58.39225025645716 22.120265843335176 -0.20165356813281363 -6.9160326130151475 4.5302604501209105 -0.1514263088688943 -1.5702092373498768 -0.026930396060875918 0.038206755575247615 -56.198045999967746 0.034883089987419194 -0.021433820231636452 -56.19472649232929 -38.8161459193708 -0.02426037264874118 -0.01006520931716708 -0.0001434818063096699 -0.017854006994075022 -0.008764764148066966 0.048908985687198724 0.006401771669234936 -0.04664054802790416 -36.73932485689362 0.00031341202921515417 0.0025247187088040714 -0.01707709255163458 -0.01784050230416528 0.018348150410777787 -0.027526154941665583 -0.029261040601838494 0.023016913340411088 -19.739483653597073 0.002237701440639794 0.0337841785824216 -0.012881790812997155 0.033815897618135714 -0.02110325111782483 -0.025441780311533237 0.004389567122765352 0.028369798862586323 24.03217637415254 0.020348381091102423 0.0038086565230824516 28.88003268609603 0.04880745978122069 -0.024762446834084264 28.834731477393007 0.032593586713373854 0.04002596411323848 9.815885194195909 2.29283126678869 15.20741434029268 -74.20314628695839 18.85521479293872 -12.045732883992267 -46.48472552260874 6.611101627419457 -91.39615716437905 -21.235033292413956 -9.586321581400297 6.335463889401091 -0.4802315814027354 0.07168920997512802 -8.088445518502263 0.041473523858317714 0.01615956751705839 44.55352908497191 -0.034917295674709754 0.004764478925466578 44.59513611512294 12.467065543610994 -9.844775148416873e-05 0.021745070191698596 0.006481820251546771 -0.04571095061718715 0.04194585147031374 0.007645252041646253 0.04128501683957928 0.008952892086746383 11.07761217702291 -0.004854677361327898 0.002697848773215391 0.04022167173257832 0.017827081138023337 -0.042140957347421 -0.026612838881269214 0.039126106131938315 -0.00044798425519766076 4.752392669844281 0.022114898795708826 0.044336467890986005 0.02862100720111107 -0.005568398739720868 0.046228925381308114 -0.015270213786264987 0.04509937090351596 0.02728388545022 -5.574784725874247 -0.018454964374678827 -0.03324413367455522 -6.742287208780947 0.011386572927263687 -0.03416727045816255 -6.707939036612713 0.018810122617972307 -0.03164695982180219 0.03146642399713204 -0.0014040766058570824 -0.002816056128091523 8.069582359276385 3.4786547710443467 -19.228460262644244 0.034911109867410424 10.370951437563148 0.02566573769371007 -5.662166019535683 -15.629931403468166 3.2146405379481604 -0.013964699556842671 0.019978252909021096 -0.03220572267339953 0.04973283244055078 4.7032181401901045 0.00547589307172215 12.43976348793089 -8.239727174619764 6.897103485984966 -0.0074289755831205735 46.33869450986435 -0.029617425330819992 -4.3616019320394885 -14.75075443877786 -3.806032402770924 0.001994093165693472 0.020756213395760916 0.026715155237686784 0.03939163404912125 -10.72152399287718 -0.0017197085446852263 
-0.03571785999936244 0.04991002283395429 0.020778682155912966 0.012282947864617554 0.010350887765380496 -0.007481007968429972 4.22082896330943 2.861016385862333 -2.069250726105338 -0.8120093894061395 3.4737603156383945 0.4205215272213647 -0.6324895648665048 -1.1745274567174464 -0.08559494971691571 -0.4397128030636194 -0.29330992399537187 -0.42448261329060555 -0.14328196758986425 12.136621271656379 -0.8788685549942882 0.364776910909817 -0.5139010111037193 -1.3115321056513634 0.7154084510925459 -16.84797481429379 -0.1113349131185002 -9.177234633533168 3.09313041797924 -18.295202214718056 79.17510549695184 2.775802216281367 0.28658612875922856 -14.597195335651143 -2.1148457728183288 55.984230629904694 21.35857165538795 -0.23226074207022657 -6.290643139546662 4.547172666073082 -0.17107036453346522 -1.6001419613829624 -0.028462754952682186 0.036036139038137356 -56.18493458690382 0.04206776223865069 -0.031063917784858175 -56.28327299062085 -38.78830963459854 0.0007313126536472874 -0.015716641775758867 0.010860090267400887 0.009824929975840177 -0.03473091376711164 0.012820249648794538 0.04139137971415893 -0.016589618776232034 -36.68090582342074 3.2077862035446834e-05 -0.017989737196210033 0.016098996148850592 0.01834248434989885 -0.021850786305641648 -0.019365117684080647 -0.047554059699267584 0.04301527235862459 -19.80394115764505 -0.04270306277707257 -0.002915442906635145 -0.007729823031650435 0.024121617782668185 0.03862382527344359 0.006120663156013891 -0.00624485111672286 -0.006275584892938626 24.005546105513464 -0.02616863508992558 -0.02139042223038655 28.819858721917623 -0.002747506423605916 -0.004100624526102581 28.911028921421984 0.04482013676431602 -0.02899728004639467 9.842190999796196 2.3312837638058257 15.147994237693773 -74.46671405412285 17.90380262990836 -12.45070261781029 -47.482237282949825 6.007168773620192 -91.53155107148821 -20.396470788988324 -9.180186522886585 5.840672059061539 -0.4489242446386456 0.08116478557446608 -8.161236358509319 0.001947180390460587 0.027347878381084382 44.55742995884489 0.017770116686962132 0.028754108367394747 44.61716606229798 12.44910837712417 -0.0304352421071664 0.02564160993110205 0.04952329827345372 -0.014964461026623266 0.032987689536889624 -0.03339450482858182 -0.028542098499537826 0.03264012463849395 11.150349731505697 0.015197257591839238 0.041969972942633625 -0.025516773210353352 -0.015409852838580552 0.005518641446326125 0.025808146010851202 -0.024294610461939994 0.03895433961471001 4.758505315721441 -0.03920506811439717 0.04936830355338791 0.0470409367762846 -0.028229623178981835 0.04245790655383657 -0.017019320004107438 -0.048818927537121797 0.020230663441164864 -5.647391602754215 0.003524692446798719 0.031223919464945928 -6.762720154564692 -0.018316505519961924 0.04691940832562827 -6.72688134383051 -0.03271458496645732 0.01602296753138081 0.009897164469595363 -0.016517857667202145 -0.011217531082025087 8.067011577773377 3.5044052324625152 -19.247972403749234 0.00905735898989282 10.410160372237794 -0.034947078021778086 -5.612187116038236 -15.679251489497426 3.1702453236050543 0.04548247307537255 0.04221738180396348 -0.026329871706161526 0.03734085484185724 4.712395709915559 -0.03383562535433628 12.502688326037314 -8.213665880598914 6.8526627363346755 0.028789909162329534 46.36052355052247 -0.030420521248917566 -4.318288925668466 -14.775140821520722 -3.86908778287675 -0.04783398498043255 -0.021802921096387345 0.020856972122108755 -0.022327430093614292 -10.70043584143647 -0.02071738920047471 
